# Blender v2.93.6 OBJ File: ''
# www.blender.org
o Cylinder
v 0.000000 -1.000000 -1.000000
v 0.000000 1.000000 -1.000000
v 0.258819 1.000000 -0.965926
v 0.258819 -1.000000 -0.965926
v 0.500000 1.000000 -0.866025
v 0.500000 -1.000000 -0.866025
v 0.707107 1.000000 -0.707107
v 0.707107 -1.000000 -0.707107
v 0.866025 1.000000 -0.500000
v 0.866025 -1.000000 -0.500000
v 0.965926 1.000000 -0.258819
v 0.965926 -1.000000 -0.258819
v 1.000000 1.000000 0.000000
v 1.000000 -1.000000 -0.000000
v 0.965926 1.000000 0.258819
v 0.965926 -1.000000 0.258819
v 0.866025 1.000000 0.500000
v 0.866025 -1.000000 0.500000
v 0.707107 1.000000 0.707107
v 0.707107 -1.000000 0.707107
v 0.500000 1.000000 0.866025
v 0.500000 -1.000000 0.866025
v 0.258819 1.000000 0.965926
v 0.258819 -1.000000 0.965926
v 0.000000 1.000000 1.000000
v 0.000000 -1.000000 1.000000
v -0.258819 1.000000 0.965926
v -0.258819 -1.000000 0.965926
v -0.500000 1.000000 0.866025
v -0.500000 -1.000000 0.866025
v -0.707107 1.000000 0.707107
v -0.707107 -1.000000 0.707107
v -0.866025 1.000000 0.500000
v -0.866025 -1.000000 0.500000
v -0.965926 1.000000 0.258819
v -0.965926 -1.000000 0.258819
v -1.000000 1.000000 0.000000
v -1.000000 -1.000000 -0.000000
v -0.965926 1.000000 -0.258819
v -0.965926 -1.000000 -0.258819
v -0.866025 1.000000 -0.500000
v -0.866025 -1.000000 -0.500000
v -0.707107 1.000000 -0.707107
v -0.707107 -1.000000 -0.707107
v -0.500000 1.000000 -0.866025
v -0.500000 -1.000000 -0.866025
v -0.258819 1.000000 -0.965926
v -0.258819 -1.000000 -0.965926
vt 1.000000 0.000000
vt 1.000000 1.000000
vt 0.958333 1.000000
vt 0.958333 0.000000
vt 0.916667 1.000000
vt 0.916667 0.000000
vt 0.875000 1.000000
vt 0.875000 0.000000
vt 0.833333 1.000000
vt 0.833333 0.000000
vt 0.791667 1.000000
vt 0.791667 0.000000
vt 0.750000 1.000000
vt 0.750000 0.000000
vt 0.708333 1.000000
vt 0.708333 0.000000
vt 0.666667 1.000000
vt 0.666667 0.000000
vt 0.625000 1.000000
vt 0.625000 0.000000
vt 0.583333 1.000000
vt 0.583333 0.000000
vt 0.541666 1.000000
vt 0.541666 0.000000
vt 0.500000 1.000000
vt 0.500000 0.000000
vt 0.458333 1.000000
vt 0.458333 0.000000
vt 0.416666 1.000000
vt 0.416666 0.000000
vt 0.375000 1.000000
vt 0.375000 0.000000
vt 0.333333 1.000000
vt 0.333333 0.000000
vt 0.291667 1.000000
vt 0.291667 0.000000
vt 0.250000 1.000000
vt 0.250000 0.000000
vt 0.208333 1.000000
vt 0.208333 0.000000
vt 0.166666 1.000000
vt 0.166666 0.000000
vt 0.125000 1.000000
vt 0.125000 0.000000
vt 0.083333 1.000000
vt 0.083333 0.000000
vt 0.041666 1.000000
vt 0.041666 0.000000
vt -0.000000 1.000000
vt 0.000000 0.000000
vn 0.0000 0.0000 -1.0000
vn 0.2588 0.0000 -0.9659
vn 0.5000 0.0000 -0.8660
vn 0.7071 0.0000 -0.7071
vn 0.8660 0.0000 -0.5000
vn 0.9659 0.0000 -0.2588
vn 1.0000 -0.0000 0.0000
vn 0.9659 -0.0000 0.2588
vn 0.8660 -0.0000 0.5000
vn 0.7071 -0.0000 0.7071
vn 0.5000 -0.0000 0.8660
vn 0.2588 -0.0000 0.9659
vn 0.0000 -0.0000 1.0000
vn -0.2588 -0.0000 0.9659
vn -0.5000 -0.0000 0.8660
vn -0.7071 -0.0000 0.7071
vn -0.8660 -0.0000 0.5000
vn -0.9659 -0.0000 0.2588
vn -1.0000 0.0000 0.0000
vn -0.9659 0.0000 -0.2588
vn -0.8660 0.0000 -0.5000
vn -0.7071 0.0000 -0.7071
vn -0.5000 0.0000 -0.8660
vn -0.2588 0.0000 -0.9659
s 1
f 1/1/1 2/2/1 3/3/2 4/4/2
f 4/4/2 3/3/2 5/5/3 6/6/3
f 6/6/3 5/5/3 7/7/4 8/8/4
f 8/8/4 7/7/4 9/9/5 10/10/5
f 10/10/5 9/9/5 11/11/6 12/12/6
f 12/12/6 11/11/6 13/13/7 14/14/7
f 14/14/7 13/13/7 15/15/8 16/16/8
f 16/16/8 15/15/8 17/17/9 18/18/9
f 18/18/9 17/17/9 19/19/10 20/20/10
f 20/20/10 19/19/10 21/21/11 22/22/11
f 22/22/11 21/21/11 23/23/12 24/24/12
f 24/24/12 23/23/12 25/25/13 26/26/13
f 26/26/13 25/25/13 27/27/14 28/28/14
f 28/28/14 27/27/14 29/29/15 30/30/15
f 30/30/15 29/29/15 31/31/16 32/32/16
f 32/32/16 31/31/16 33/33/17 34/34/17
f 34/34/17 33/33/17 35/35/18 36/36/18
f 36/36/18 35/35/18 37/37/19 38/38/19
f 38/38/19 37/37/19 39/39/20 40/40/20
f 40/40/20 39/39/20 41/41/21 42/42/21
f 42/42/21 41/41/21 43/43/22 44/44/22
f 44/44/22 43/43/22 45/45/23 46/46/23
f 46/46/23 45/45/23 47/47/24 48/48/24
f 48/48/24 47/47/24 2/49/1 1/50/1
